<?xml version="1.0" encoding="UTF-8" standalone="no"?>
<!-- Created with Inkscape (http://www.inkscape.org/) -->

<svg
   width="73.001175mm"
   height="121.40801mm"
   viewBox="0 0 73.001175 121.40801"
   version="1.1"
   id="svg5"
   xml:space="preserve"
   xmlns:inkscape="http://www.inkscape.org/namespaces/inkscape"
   xmlns:sodipodi="http://sodipodi.sourceforge.net/DTD/sodipodi-0.dtd"
   xmlns="http://www.w3.org/2000/svg"
   xmlns:svg="http://www.w3.org/2000/svg"><sodipodi:namedview
     id="namedview7"
     pagecolor="#ffffff"
     bordercolor="#000000"
     borderopacity="0.25"
     inkscape:showpageshadow="2"
     inkscape:pageopacity="0.0"
     inkscape:pagecheckerboard="0"
     inkscape:deskcolor="#d1d1d1"
     inkscape:document-units="mm"
     showgrid="false" /><defs
     id="defs2"><inkscape:path-effect
       effect="powerclip"
       id="path-effect8825"
       is_visible="true"
       lpeversion="1"
       inverse="true"
       flatten="false"
       hide_clip="false"
       message="Utilice la regla de relleno parimpar en el diálogo &lt;b&gt;Relleno y borde&lt;/b&gt; si el resultado no está aplanada después de convertir el recorte en trayectos." /><inkscape:path-effect
       effect="powerclip"
       id="path-effect8707"
       is_visible="true"
       lpeversion="1"
       inverse="true"
       flatten="false"
       hide_clip="false"
       message="Utilice la regla de relleno parimpar en el diálogo &lt;b&gt;Relleno y borde&lt;/b&gt; si el resultado no está aplanada después de convertir el recorte en trayectos." /><clipPath
       clipPathUnits="userSpaceOnUse"
       id="clipPath8703"><rect
         style="display:none;fill:#ffffff;fill-opacity:1;stroke:#f174dc;stroke-width:0.113174;stroke-opacity:1"
         id="rect8705"
         width="43.21785"
         height="14.617803"
         x="91.362892"
         y="84.920593"
         ry="2.8352189"
         d="m 94.198111,84.920593 h 37.547409 c 1.57071,0 2.83522,1.264508 2.83522,2.835219 v 8.947365 c 0,1.570711 -1.26451,2.835219 -2.83522,2.835219 H 94.198111 c -1.570711,0 -2.835219,-1.264508 -2.835219,-2.835219 v -8.947365 c 0,-1.570711 1.264508,-2.835219 2.835219,-2.835219 z" /><path
         id="lpe_path-effect8707"
         style="fill:#ffffff;fill-opacity:1;stroke:#f174dc;stroke-width:0.113174;stroke-opacity:1"
         class="powerclip"
         d="M 98.938606,73.904614 H 126.88981 V 100.63907 H 98.938606 Z m -4.740495,11.015979 c -1.570711,0 -2.835219,1.264508 -2.835219,2.835219 v 8.947365 c 0,1.570711 1.264508,2.835219 2.835219,2.835219 h 37.547409 c 1.57071,0 2.83522,-1.264508 2.83522,-2.835219 v -8.947365 c 0,-1.570711 -1.26451,-2.835219 -2.83522,-2.835219 z" /></clipPath><clipPath
       clipPathUnits="userSpaceOnUse"
       id="clipPath8821"><ellipse
         style="display:none;fill:#ffffff;fill-opacity:1;stroke:#f174dc;stroke-width:0.559049;stroke-dasharray:none;stroke-opacity:1"
         id="ellipse8823"
         cx="112.91421"
         cy="86.875809"
         rx="8.8442364"
         ry="7.9925127"
         d="m 121.75844,86.875809 a 8.8442364,7.9925127 0 0 1 -8.84423,7.992512 8.8442364,7.9925127 0 0 1 -8.84424,-7.992512 8.8442364,7.9925127 0 0 1 8.84424,-7.992513 8.8442364,7.9925127 0 0 1 8.84423,7.992513 z" /><path
         id="lpe_path-effect8825"
         style="fill:#ffffff;fill-opacity:1;stroke:#f174dc;stroke-width:0.559049;stroke-dasharray:none;stroke-opacity:1"
         class="powerclip"
         d="M 87.280541,79.922456 H 140.98139 V 105.02326 H 87.280541 Z m 34.477899,6.953353 a 8.8442364,7.9925127 0 0 0 -8.84423,-7.992513 8.8442364,7.9925127 0 0 0 -8.84424,7.992513 8.8442364,7.9925127 0 0 0 8.84424,7.992512 8.8442364,7.9925127 0 0 0 8.84423,-7.992512 z" /></clipPath></defs><g
     inkscape:label="Capa 1"
     inkscape:groupmode="layer"
     id="layer1"
     transform="translate(-75.68358,-78.380163)"><g
       id="g9845"
       inkscape:export-filename="form.svg"
       inkscape:export-xdpi="96"
       inkscape:export-ydpi="96"><rect
         style="fill:#ffffff;fill-opacity:1;stroke:#000000;stroke-width:0.483;stroke-dasharray:none;stroke-opacity:1"
         id="rect3335"
         width="72.518181"
         height="107.56053"
         x="75.925079"
         y="91.986145"
         ry="3.2567487" /><path
         d="m 104.32061,135.3305 c 0,-3.52348 2.8647,-6.38818 6.38818,-6.38818 h 3.1941 c 3.52348,0 6.38818,2.8647 6.38818,6.38818 v 0.35934 c 0,2.17598 -1.10795,4.20223 -2.93457,5.37007 l -4.21221,2.70499 c -2.51535,1.61701 -4.03254,4.40186 -4.03254,7.38634 v 0.14972 c 0,1.76673 1.42736,3.19409 3.19409,3.19409 1.76673,0 3.19409,-1.42736 3.19409,-3.19409 v -0.13974 c 0,-0.81848 0.41923,-1.57708 1.09797,-2.01627 l 4.21221,-2.70499 c 3.65324,-2.35565 5.86914,-6.39817 5.86914,-10.75012 v -0.35934 c 0,-7.05694 -5.71942,-12.77636 -12.77636,-12.77636 h -3.1941 c -7.05694,0 -12.776356,5.71942 -12.776356,12.77636 0,1.76674 1.42736,3.1941 3.194086,3.1941 1.76673,0 3.19409,-1.42736 3.19409,-3.1941 z m 7.98523,31.94092 a 3.992615,3.992615 0 1 0 0,-7.98523 3.992615,3.992615 0 1 0 0,7.98523 z"
         id="path4428"
         style="fill:#f174dc;fill-opacity:1;stroke-width:0.0998152" /><path
         style="fill:#ffffff;fill-opacity:1;stroke:#f174dc;stroke-width:0.483;stroke-dasharray:none;stroke-opacity:1"
         id="path5745"
         clip-path="url(#clipPath8703)"
         inkscape:path-effect="#path-effect8707"
         sodipodi:type="arc"
         sodipodi:cx="112.91421"
         sodipodi:cy="87.271843"
         sodipodi:rx="8.7341013"
         sodipodi:ry="8.1257286"
         d="m 121.64831,87.271843 a 8.7341013,8.1257286 0 0 1 -8.7341,8.125729 8.7341013,8.1257286 0 0 1 -8.7341,-8.125729 8.7341013,8.1257286 0 0 1 8.7341,-8.125729 8.7341013,8.1257286 0 0 1 8.7341,8.125729 z"
         transform="matrix(1.0388784,0,0,0.99943631,-4.389924,-0.47997213)" /><ellipse
         style="fill:#f174dc;fill-opacity:1;stroke:none;stroke-width:0.0591087;stroke-opacity:1"
         id="path5745-9"
         cx="112.79254"
         cy="-84.930222"
         rx="2.8728347"
         ry="2.5782323"
         transform="scale(1,-1)" /><path
         style="fill:#feffff;fill-opacity:1;stroke:#f174dc;stroke-width:0.483;stroke-dasharray:none;stroke-opacity:1"
         id="rect5691-6"
         width="43.21785"
         height="14.617803"
         x="92.522041"
         y="85.163956"
         ry="0.46920064"
         clip-path="url(#clipPath8821)"
         inkscape:path-effect="#path-effect8825"
         d="m 92.991242,85.163956 h 42.279448 c 0.25994,0 0.4692,0.209263 0.4692,0.4692 v 13.679402 c 0,0.259937 -0.20926,0.4692 -0.4692,0.4692 H 92.991242 c -0.259937,0 -0.469201,-0.209263 -0.469201,-0.4692 V 85.633156 c 0,-0.259937 0.209264,-0.4692 0.469201,-0.4692 z"
         sodipodi:type="rect"
         transform="translate(0,-0.73004879)" /><rect
         style="fill:#f9ffff;fill-opacity:1;stroke:none;stroke-width:0.483;stroke-dasharray:none;stroke-opacity:1"
         id="rect9555"
         width="29.201954"
         height="6.3270898"
         x="98.799942"
         y="88.822609"
         ry="0.46920064" /></g></g></svg>
