<?xml version="1.0" encoding="UTF-8" standalone="no"?>
<!-- Created with Inkscape (http://www.inkscape.org/) -->

<svg
   width="73.001175mm"
   height="122.10385mm"
   viewBox="0 0 73.001175 122.10385"
   version="1.1"
   id="svg5"
   xml:space="preserve"
   xmlns="http://www.w3.org/2000/svg"
   xmlns:svg="http://www.w3.org/2000/svg"><defs
     id="defs2"><clipPath
       clipPathUnits="userSpaceOnUse"
       id="clipPath8703"><rect
         style="display:none;fill:#ffffff;fill-opacity:1;stroke:#f174dc;stroke-width:0.113174;stroke-opacity:1"
         id="rect8705"
         width="43.21785"
         height="14.617803"
         x="91.362892"
         y="84.920593"
         ry="2.8352189"
         d="m 94.198111,84.920593 h 37.547409 c 1.57071,0 2.83522,1.264508 2.83522,2.835219 v 8.947365 c 0,1.570711 -1.26451,2.835219 -2.83522,2.835219 H 94.198111 c -1.570711,0 -2.835219,-1.264508 -2.835219,-2.835219 v -8.947365 c 0,-1.570711 1.264508,-2.835219 2.835219,-2.835219 z" /><path
         id="lpe_path-effect8707"
         style="fill:#ffffff;fill-opacity:1;stroke:#f174dc;stroke-width:0.113174;stroke-opacity:1"
         class="powerclip"
         d="M 98.837614,73.803622 H 126.9908 V 100.74006 H 98.837614 Z m -4.639503,11.116971 c -1.570711,0 -2.835219,1.264508 -2.835219,2.835219 v 8.947365 c 0,1.570711 1.264508,2.835219 2.835219,2.835219 h 37.547409 c 1.57071,0 2.83522,-1.264508 2.83522,-2.835219 v -8.947365 c 0,-1.570711 -1.26451,-2.835219 -2.83522,-2.835219 z" /></clipPath></defs><g
     id="layer1"
     transform="translate(-77.84218,-77.684324)"><g
       id="g12818"><rect
         style="fill:#ffffff;fill-opacity:1;stroke:#000000;stroke-width:0.483;stroke-dasharray:none;stroke-opacity:1"
         id="rect3335"
         width="72.518181"
         height="107.56053"
         x="78.083679"
         y="91.986145"
         ry="3.2567487" /><path
         d="m 108.0569,132.15548 c 0,-3.52348 2.8647,-6.38818 6.38818,-6.38818 h 3.1941 c 3.52348,0 6.38818,2.8647 6.38818,6.38818 v 0.35934 c 0,2.17598 -1.10795,4.20223 -2.93457,5.37007 l -4.21221,2.70499 c -2.51535,1.61701 -4.03254,4.40186 -4.03254,7.38634 v 0.14972 c 0,1.76673 1.42736,3.19409 3.19409,3.19409 1.76673,0 3.19409,-1.42736 3.19409,-3.19409 v -0.13974 c 0,-0.81848 0.41923,-1.57708 1.09797,-2.01627 l 4.21221,-2.70499 c 3.65324,-2.35565 5.86914,-6.39817 5.86914,-10.75012 v -0.35934 c 0,-7.05694 -5.71942,-12.77636 -12.77636,-12.77636 h -3.1941 c -7.05694,0 -12.77637,5.71942 -12.77637,12.77636 0,1.76674 1.42737,3.1941 3.1941,3.1941 1.76673,0 3.19409,-1.42736 3.19409,-3.1941 z m 7.98523,31.94092 a 3.992615,3.992615 0 1 0 0,-7.98523 3.992615,3.992615 0 1 0 0,7.98523 z"
         id="path4428"
         style="fill:#f174dc;fill-opacity:1;stroke-width:0.0998152" /><rect
         style="fill:#f9ffff;fill-opacity:1;stroke:none;stroke-width:0.214478;stroke-dasharray:none;stroke-opacity:1"
         id="rect10007"
         width="14.636056"
         height="8.2616215"
         x="103.96233"
         y="84.727951"
         ry="0.2762582" /><rect
         style="fill:#ffffff;fill-opacity:1;stroke:none;stroke-width:0.674347;stroke-dasharray:none;stroke-opacity:1"
         id="rect12074"
         width="43.013435"
         height="11.826324"
         x="92.462372"
         y="83.806389" /><rect
         style="fill:#f9ffff;fill-opacity:1;stroke:none;stroke-width:0.190196;stroke-dasharray:none;stroke-opacity:1"
         id="rect10007-4"
         width="11.509632"
         height="8.2616215"
         x="104.61831"
         y="83.62767"
         ry="0.2762582" /><rect
         style="fill:#f9ffff;fill-opacity:1;stroke:none;stroke-width:0.190196;stroke-dasharray:none;stroke-opacity:1"
         id="rect10007-4-1"
         width="11.509632"
         height="8.2616215"
         x="111.78364"
         y="83.567009"
         ry="0.2762582" /><rect
         style="fill:#ca53dc;fill-opacity:1;stroke:#ca53dc;stroke-width:0.293765;stroke-dasharray:none;stroke-opacity:1"
         id="rect11182"
         width="12.521072"
         height="0.35276678"
         x="92.220261"
         y="83.319237"
         ry="0" /><rect
         style="fill:#ca53dc;fill-opacity:1;stroke:#ca53dc;stroke-width:0.293765;stroke-dasharray:none;stroke-opacity:1"
         id="rect11182-5"
         width="12.521072"
         height="0.35276678"
         x="123.06802"
         y="83.317329"
         ry="0" /><rect
         style="fill:#ca53dc;fill-opacity:1;stroke:#ca53dc;stroke-width:0.295646;stroke-dasharray:none;stroke-opacity:1"
         id="rect11182-5-9"
         width="12.734084"
         height="0.3513217"
         x="85.070107"
         y="-134.86848"
         ry="0"
         transform="matrix(0.00862024,0.99996285,-0.99995959,0.00898956,0,0)" /><rect
         style="fill:#ca53dc;fill-opacity:1;stroke:#ca53dc;stroke-width:0.294564;stroke-dasharray:none;stroke-opacity:1"
         id="rect11182-5-9-1"
         width="12.61119"
         height="0.35215312"
         x="84.693657"
         y="-91.84832"
         ry="0"
         transform="matrix(0.00872485,0.99996194,-0.99996056,0.00888177,0,0)" /><rect
         style="fill:#ca53dc;fill-opacity:1;stroke:#ca53dc;stroke-width:0.428834;stroke-dasharray:none;stroke-opacity:1"
         id="rect11182-0"
         width="43.237057"
         height="0.21769713"
         x="92.403656"
         y="96.474403"
         ry="0" /><path
         style="mix-blend-mode:normal;fill:#ffffff;fill-opacity:1;stroke:#ca53dc;stroke-width:0.684984;stroke-dasharray:none;stroke-opacity:1"
         id="path5745"
         clip-path="url(#clipPath8703)"
         d="m 121.64831,87.271843 a 8.7341013,8.1257286 0 0 1 -8.7341,8.125729 8.7341013,8.1257286 0 0 1 -8.7341,-8.125729 8.7341013,8.1257286 0 0 1 8.7341,-8.125729 8.7341013,8.1257286 0 0 1 8.7341,8.125729 z"
         transform="matrix(1.1271942,0,0,1.0024562,-13.370799,-1.3128537)" /><ellipse
         style="fill:#f174dc;fill-opacity:1;stroke:none;stroke-width:0.0718898;stroke-opacity:1"
         id="path5745-9"
         cx="113.89994"
         cy="-84.709023"
         rx="3.4940276"
         ry="3.1357234"
         transform="scale(1,-1)" /></g></g></svg>
